<svg width="421" height="155" viewBox="0 0 421 155" fill="none" xmlns="http://www.w3.org/2000/svg">
<path d="M57.9688 53.6637C62.1703 53.6637 65.5763 50.25 65.5763 46.0389C65.5763 41.8278 62.1703 38.4141 57.9688 38.4141C53.7673 38.4141 50.3613 41.8278 50.3613 46.0389C50.3613 50.25 53.7673 53.6637 57.9688 53.6637Z" fill="#F05323"/>
<path d="M96.1617 83.2858C100.363 83.2858 103.769 79.8721 103.769 75.661C103.769 71.4499 100.363 68.0361 96.1617 68.0361C91.9602 68.0361 88.5542 71.4499 88.5542 75.661C88.5542 79.8721 91.9602 83.2858 96.1617 83.2858Z" fill="#F05323"/>
<path d="M52.7416 51.5735L59.2833 53.5456L49.5584 87.8673C49.5584 87.8673 46.2677 96.1098 56.6174 95.2853C66.6222 95.3419 94.375 95.3419 94.375 95.3419C94.375 95.3419 104.312 96.3818 107.396 85.8045C110.274 75.1592 116.991 50.0207 116.991 50.0207C116.991 50.0207 120.282 40.9537 110 35.4596L100.886 69.8011L94.1008 68.4949L103.079 35.1167H43.6443C43.6443 35.1167 39.2115 35.6664 40.1727 30.722C41.4053 25.8683 41.8859 19.6631 49.0128 14.5827C51.3422 13.0016 55.1813 11.0125 61.8276 11.0805C68.4739 11.1485 101.024 11.0777 101.024 11.0777C101.024 11.0777 106.028 10.8737 109.454 14.169C112.881 17.4643 112.332 19.527 112.332 19.527C112.332 19.527 112.197 22.8252 108.151 22.3435C106.848 22.0687 106.096 21.0373 105.48 19.9407C104.863 18.8414 102.669 17.674 99.8594 17.9488C96.7073 18.0168 58.9497 17.9488 58.9497 17.9488C58.9497 17.9488 49.5612 18.7733 47.7123 28.6621L110.415 28.7301C110.415 28.7301 114.664 28.4553 120.078 35.1167C125.492 41.7782 124.327 48.0288 124.327 48.0288L123.23 53.2197L114.255 86.3542C114.255 86.3542 111.651 103.664 91.5706 102.083C71.4225 102.185 54.223 102.185 54.223 102.185C54.223 102.185 39.3529 102.494 43.1213 85.7365C43.1213 85.7365 26.0574 84.912 30.8549 64.9927C35.9265 46.5158 36.6107 43.7021 36.6107 43.7021C36.6107 43.7021 37.5012 40.4408 41.4081 41.6422C42.0922 41.917 43.7715 42.8776 43.1213 45.9009L37.2976 67.4664C37.2976 67.4664 33.5971 79.075 44.9277 79.1204L52.7416 51.5735Z" fill="#F05323"/>
<path d="M69.136 43.2236H91.0199C91.0199 43.2236 92.3401 43.4475 92.1168 44.7679C91.8934 46.0883 90.8305 46.1421 90.8305 46.1421H69.136C69.136 46.1421 67.7875 46.0741 67.8214 44.6829C67.8554 43.2916 69.136 43.2236 69.136 43.2236Z" fill="#F05323"/>
<path d="M67.3347 51.1904H89.2186C89.2186 51.1904 90.5388 51.4143 90.3155 52.7347C90.0922 54.0551 89.0292 54.1089 89.0292 54.1089H67.3347C67.3347 54.1089 65.9862 54.0409 66.0202 52.6497C66.0569 51.2584 67.3347 51.1904 67.3347 51.1904Z" fill="#F05323"/>
<path d="M65.2795 59.1553H87.1635C87.1635 59.1553 88.4837 59.3791 88.2603 60.6995C88.037 62.0227 86.974 62.0737 86.974 62.0737H65.2795C65.2795 62.0737 63.9311 62.0057 63.965 60.6145C63.9989 59.2261 65.2795 59.1553 65.2795 59.1553Z" fill="#F05323"/>
<path d="M63.5662 67.123H85.4501C85.4501 67.123 86.7703 67.3469 86.547 68.6673C86.3236 69.9905 85.2607 70.0415 85.2607 70.0415H63.5662C63.5662 70.0415 62.2177 69.9735 62.2516 68.5823C62.2855 67.1939 63.5662 67.123 63.5662 67.123Z" fill="#F05323"/>
<path d="M61.5564 75.0908H83.4403C83.4403 75.0908 84.7605 75.3147 84.5372 76.6351C84.3139 77.9583 83.2509 78.0093 83.2509 78.0093H61.5564C61.5564 78.0093 60.2079 77.9413 60.2418 76.5501C60.2758 75.1588 61.5564 75.0908 61.5564 75.0908Z" fill="#F05323"/>
<path d="M194.632 19.3651C194.632 19.3651 200.526 23.2101 196.458 29.6676C195.361 31.2232 191.661 34.4306 186.089 31.1778C180.517 27.925 173.754 23.7145 162.424 25.1794C155.755 26.1881 149.996 31.4073 153.058 39.8312C153.835 41.7098 156.871 46.0365 174.209 49.4706C184.008 51.9443 196.549 56.407 199.975 66.9163C203.401 77.4256 200.798 96.4494 178.32 100.847C155.842 105.242 136.243 91.0262 135.078 88.7594C135.078 88.7594 132.406 85.1184 135.078 80.6557C137.749 76.1902 144.124 77.2215 145.459 78.6638C145.459 78.6638 148.235 80.7577 149.776 81.7211C151.316 82.6816 158.033 87.6628 169.101 87.8697C180.169 88.0765 183.389 83.0613 183.389 83.0613C183.389 83.0613 188.277 78.0716 184.166 71.1551C183.847 70.6961 181.608 67.3554 172.106 64.7458C162.65 62.3657 149.722 59.6626 142.731 53.0238C135.739 46.385 135.649 33.1981 138.756 26.6953C141.866 20.1897 148.628 12.4515 163.292 11.2161C177.955 9.98072 190.247 15.795 194.632 19.3651Z" fill="#F05323"/>
<path d="M299.136 41.5734C296.6 30.9281 291.302 24.7228 289.838 23.1672C280.475 11.7654 264.05 11.6946 264.05 11.6946C264.05 11.6946 233.213 11.7286 232.082 11.6946C230.951 11.6606 229.787 11.8306 228.449 12.4171C223.242 15.1996 223.858 20.8296 223.858 20.8296C223.858 20.8296 224.031 82.0947 223.836 91.7795C223.641 101.464 231.293 101.872 231.293 101.872C231.293 101.872 253.497 101.807 257.404 101.807C261.311 101.807 277.552 103.388 289.063 91.0938C300.575 78.7994 300.439 62.3852 300.439 62.3852C300.439 62.3852 301.672 52.2187 299.136 41.5734ZM280.017 78.5925C273.506 88.1385 261.514 88.4842 258.636 88.827C255.69 88.827 246.712 88.827 246.712 88.827C246.712 88.827 240.133 88.4162 239.619 80.7233C239.619 73.0305 239.619 32.5063 239.619 32.5063C239.619 32.5063 239.653 25.74 246.712 24.5386C248.357 24.5386 259.595 24.4026 262.885 25.0883C266.176 25.774 274.089 26.8394 279.536 34.3254C284.984 41.8114 284.676 51.4622 284.676 51.4622C284.676 51.4622 286.528 69.0466 280.017 78.5925Z" fill="#F05323"/>
<path d="M389.205 28.2478C383.174 11.672 363.759 11.7627 363.759 11.7627C363.759 11.7627 335.89 11.7627 328.308 11.7627C320.771 12.0829 320.771 20.1866 320.771 20.1866V94.2731C320.771 94.2731 321.777 102.286 329.085 101.782C336.396 101.277 336.554 94.0435 336.554 94.0435C336.554 94.0435 336.622 85.3193 336.486 76.7339C336.28 67.188 343.978 67.1653 343.978 67.1653C365.633 67.8057 369.837 66.4315 372.028 65.7911C398.158 58.6536 389.937 30.6307 389.205 28.2478ZM363.439 53.9359C363.439 53.9359 361.749 54.3468 356.448 54.3014C351.147 54.2561 344.936 54.3043 344.936 54.3043C344.936 54.3043 337.49 54.9418 336.577 46.8834C336.577 38.9158 336.577 31.7273 336.577 31.7273C336.577 31.7273 337.216 25.0431 344.252 24.5388C349.872 24.5388 362.023 24.5388 362.023 24.5388C362.023 24.5388 373.992 24.1279 374.996 36.3061C376.002 48.4872 370.063 52.9754 363.439 53.9359Z" fill="#F05323"/>
<path d="M42.1006 130.383H45.2696C45.2696 130.383 45.7418 126.212 40.9189 124.84C36.096 123.469 32.4887 125.818 31.6321 128.595C30.7755 131.371 32.6923 134.182 35.9773 134.715C36.3193 134.783 40.1838 135.76 40.8341 136.001C41.4843 136.242 43.3473 137.39 42.1006 139.875C41.7698 140.464 40.721 141.572 37.7809 141.24C34.8408 140.909 33.9729 139.013 33.9164 137.288H30.7445C30.7445 137.288 30.555 142.688 36.0112 143.697C41.4673 144.706 44.9558 142.651 45.6569 139.274C46.358 135.896 44.2717 133.618 40.2884 132.828C38.0297 132.278 32.6442 131.371 35.5504 127.841C36.1158 127.277 41.3316 125.54 42.1006 130.383Z" fill="#F05323"/>
<path d="M54.226 126.127H57.1661V130.139H59.8687V132.281H57.0473V139.498C57.0473 139.498 56.6204 142.034 59.8687 141.144V143.476C59.8687 143.476 56.824 143.938 55.5236 143.201C54.2231 142.465 54.2231 140.15 54.2231 140.15V132.369H51.9644V130.159H54.2401L54.226 126.127Z" fill="#F05323"/>
<path d="M206.893 126.194H209.833V130.207H212.536V132.349H209.714V139.565C209.714 139.565 209.288 142.101 212.536 141.212V143.544C212.536 143.544 209.491 144.005 208.191 143.269C206.89 142.532 206.89 140.217 206.89 140.217V132.436H204.634V130.226H206.91L206.893 126.194Z" fill="#F05323"/>
<path d="M67.0687 130.19H69.8731V132.658C69.8731 132.658 70.9672 129.331 74.9702 129.779V132.658C74.9702 132.658 71.8916 132.006 70.6251 134.44C70.2152 135.332 69.9975 136.678 70.0428 138.735V143.615H67.0659V130.19H67.0687Z" fill="#F05323"/>
<path d="M352.171 130.184H354.975V132.652C354.975 132.652 356.069 129.325 360.072 129.773V132.652C360.072 132.652 356.994 132 355.727 134.434C355.317 135.326 355.1 136.672 355.145 138.729V143.609H352.168V130.184H352.171Z" fill="#F05323"/>
<path d="M103.837 130.121H100.896V143.444H103.837V130.121Z" fill="#F05323"/>
<path d="M103.837 124.911H100.896V127.813H103.837V124.911Z" fill="#F05323"/>
<path d="M142.85 137.504C143.345 134.575 141.595 131.973 140.888 131.427C135.78 127.565 130.968 130.948 130.193 135.289C129.419 139.629 132.206 144.452 137.284 143.837C142.361 143.222 142.689 139.221 142.689 139.221H139.884C139.384 141.324 137.535 141.46 136.501 141.508C132.775 141.256 133.066 137.51 133.066 137.51H142.85V137.504ZM133.029 135.694C133.029 135.694 133.473 131.803 136.653 132.095C139.834 132.387 139.989 135.694 139.989 135.694H133.029Z" fill="#F05323"/>
<path d="M171.867 124.945H163.043V143.524H171.013C171.013 143.524 177.408 143.969 178.674 136.531C179.938 129.093 175.904 125.322 171.867 124.945ZM170.566 140.816H166.187V127.617C168.409 127.515 170.77 127.617 172.07 127.892C175.731 128.887 175.731 133.137 175.731 134.216C175.697 140.886 170.566 140.816 170.566 140.816Z" fill="#F05323"/>
<path d="M230.934 140.721C230.934 140.721 230.934 133.909 230.934 133.088C230.341 129.934 226.533 129.733 225.735 129.733C219.055 129.69 219.556 134.229 219.556 134.229H222.45C222.541 132.651 223.796 132.286 224.319 132.172C228.401 131.807 228.217 133.819 228.104 134.252C227.191 136.652 223.499 134.618 220.511 136.882C217.523 139.143 219.544 142.548 220.876 143.211C225.255 145.016 228.263 142.16 228.263 142.16C228.582 144.835 232.368 143.464 232.368 143.464V141.452C230.615 141.772 230.934 140.721 230.934 140.721ZM227.946 139.213C227.74 141.911 222.473 142.344 222.04 140.151C221.608 137.958 224.07 137.386 225.668 137.363C227.265 137.341 227.946 136.777 227.946 136.777V139.213Z" fill="#F05323"/>
<path d="M197.699 140.721C197.699 140.721 197.699 133.909 197.699 133.088C197.106 129.934 193.298 129.733 192.5 129.733C185.82 129.69 186.321 134.229 186.321 134.229H189.216C189.306 132.651 190.561 132.286 191.084 132.172C195.166 131.807 194.983 133.819 194.87 134.252C193.956 136.652 190.264 134.618 187.276 136.882C184.288 139.143 186.309 142.548 187.641 143.211C192.02 145.016 195.028 142.16 195.028 142.16C195.347 144.835 199.133 143.464 199.133 143.464V141.452C197.383 141.772 197.699 140.721 197.699 140.721ZM194.714 139.213C194.508 141.911 189.241 142.344 188.808 140.151C188.376 137.958 190.838 137.386 192.435 137.363C194.033 137.341 194.714 136.777 194.714 136.777V139.213Z" fill="#F05323"/>
<path d="M261.33 124.979C260.714 124.979 251.845 124.979 251.845 124.979V143.489H255.153V136.542H260.352C260.352 136.542 265.276 136.61 266.167 132.496C267.052 128.384 264.999 125.389 261.33 124.979ZM260.394 133.805C258.319 133.805 255.065 133.805 255.065 133.805V127.531H260.281C260.281 127.531 263.495 127.33 263.018 131.263C263.018 131.263 263.153 133.445 260.394 133.805Z" fill="#F05323"/>
<path d="M276.853 124.979H273.893V143.489H276.853V124.979Z" fill="#F05323"/>
<path d="M296.382 140.721C296.382 140.721 296.382 133.909 296.382 133.088C295.788 129.934 291.98 129.733 291.183 129.733C284.503 129.69 285.003 134.229 285.003 134.229H287.898C287.989 132.651 289.244 132.286 289.767 132.172C293.849 131.807 293.665 133.819 293.552 134.252C292.639 136.652 288.947 134.618 285.959 136.882C282.971 139.143 284.992 142.548 286.323 143.211C290.703 145.016 293.71 142.16 293.71 142.16C294.03 144.835 297.815 143.464 297.815 143.464V141.452C296.063 141.772 296.382 140.721 296.382 140.721ZM293.397 139.213C293.19 141.911 287.924 142.344 287.491 140.151C287.059 137.958 289.521 137.386 291.118 137.363C292.715 137.341 293.397 136.777 293.397 136.777V139.213Z" fill="#F05323"/>
<path d="M305.675 126.129H308.615V130.141H311.317V132.283H308.496V139.5C308.496 139.5 308.069 142.036 311.317 141.146V143.478C311.317 143.478 308.273 143.94 306.972 143.203C305.672 142.467 305.672 140.152 305.672 140.152V132.371H303.416V130.161H305.692L305.675 126.129Z" fill="#F05323"/>
<path d="M325.163 125.115V127.481C325.163 127.481 323.351 126.931 322.752 127.566C322.41 127.96 322.274 128.663 322.359 130.136H324.906V132.312H322.334V143.465H319.45V132.335H317.146V130.153H319.416C319.416 130.153 319.074 126.484 320.83 125.492C322.585 124.5 325.163 125.115 325.163 125.115Z" fill="#F05323"/>
<path d="M337.806 129.734C334.029 129.734 330.965 132.916 330.965 136.841C330.965 140.765 334.027 143.947 337.806 143.947C341.583 143.947 344.648 140.765 344.648 136.841C344.648 132.916 341.583 129.734 337.806 129.734ZM337.897 141.641C335.742 141.641 333.998 139.481 333.998 136.818C333.998 134.155 335.742 131.995 337.897 131.995C340.051 131.995 341.795 134.155 341.795 136.818C341.798 139.481 340.051 141.641 337.897 141.641Z" fill="#F05323"/>
<path d="M366.399 130.144H369.248V131.972H369.432C369.432 131.972 370.526 129.617 373.718 129.756C374.835 129.75 376.568 130.283 377.184 131.972C377.184 131.972 378.552 129.538 381.995 129.75C385.439 129.963 385.758 133.23 385.758 133.23V143.515H382.793V134.74C382.793 134.74 383.044 132.182 380.398 132.111C377.752 132.04 377.639 134.763 377.639 135.174C377.639 135.585 377.639 143.515 377.639 143.515H374.606V134.258C374.606 134.258 374.764 132.156 372.098 132.065C372.098 132.065 369.429 132.111 369.407 135.539C369.384 138.968 369.362 143.515 369.362 143.515H366.396V130.144H366.399Z" fill="#F05323"/>
<path d="M92.6393 140.725C92.6393 140.725 92.6393 133.913 92.6393 133.091C92.0456 129.938 88.2376 129.737 87.4404 129.737C80.7602 129.694 81.2606 134.233 81.2606 134.233H84.1554C84.2459 132.655 85.5011 132.29 86.0241 132.176C90.1063 131.811 89.9225 133.822 89.8095 134.256C88.8963 136.656 85.2043 134.621 82.2161 136.885C79.228 139.147 81.2493 142.552 82.5808 143.215C86.9598 145.02 89.9678 142.164 89.9678 142.164C90.2872 144.839 94.0726 143.468 94.0726 143.468V141.456C92.3227 141.776 92.6393 140.725 92.6393 140.725ZM89.654 139.217C89.4476 141.915 84.1809 142.348 83.7484 140.155C83.3158 137.962 85.7782 137.39 87.3754 137.367C88.9727 137.344 89.654 136.781 89.654 136.781V139.217V139.217Z" fill="#F05323"/>
<path d="M114.302 130.167L117.63 140.314L121.005 130.167H124.061L119.182 143.445H115.967L111.088 130.167H114.302Z" fill="#F05323"/>
</svg>
